<?xml version="1.0" encoding="UTF-8"?>
<svg xmlns="http://www.w3.org/2000/svg" viewBox="425 20 160 215" role="img" aria-label="CNCS pictograma branco">
  <g fill="#FFFFFF">
    <path d="M485.605,26.591v31.367c0,11.017,8.945,19.961,20.006,19.961c11.016,0,19.954-8.943,19.954-19.961V26.591H485.605z"/>
    <path d="M430.639,100.493v31.365c0,11.018,8.942,19.961,20.002,19.961c11.019,0,19.961-8.943,19.961-19.961v-31.365H430.639z"/>
    <path d="M485.605,100.493v31.365c0,11.018,8.945,19.961,20.006,19.961c11.019,0,19.954-8.943,19.954-19.961v-31.365H485.605z"/>
    <path d="M540.69,100.493v31.365c0,11.018,8.942,19.961,19.999,19.961c11.023,0,19.967-8.943,19.967-19.961v-31.365H540.69z"/>
    <path d="M485.605,175.444v31.366c0,11.017,8.945,19.962,20.006,19.962c11.016,0,19.954-8.945,19.954-19.962v-31.366H485.605z"/>
  </g>
</svg>
