<?xml version="1.0" encoding="UTF-8"?>
<svg id="Ebene_1" data-name="Ebene 1" xmlns="http://www.w3.org/2000/svg" viewBox="0 0 181.26 76.16">
  <defs>
    <style>
      .cls-1 {
        fill: #fff;
      }

      .cls-2 {
        fill: #d9fefe;
      }
    </style>
  </defs>
  <path d="M58.1,39.06v-.39c0,.13-.02.26-.02.39h.02Z"/>
  <path class="cls-1" d="M89.48,28.79c0-1.11.19-1.89.56-2.37s.95-.7,1.75-.7c.6,0,1.03.17,1.31.51.27.34.41.85.41,1.53v5.45h1.89v-5.78c0-2.17-1.06-3.25-3.19-3.25-.6,0-1.14.12-1.64.34-.49.23-.88.56-1.14.98h-.09l-.27-1.17h-1.48v8.87h1.89v-4.42h0Z"/>
  <path class="cls-1" d="M101.75,25.75c.52,0,1.17.16,1.97.47l.57-1.52c-.75-.34-1.59-.52-2.53-.52-1.38,0-2.43.4-3.16,1.21-.73.81-1.1,1.95-1.1,3.44s.35,2.59,1.05,3.37,1.72,1.17,3.06,1.17c.55,0,1.01-.04,1.39-.13s.74-.23,1.08-.42v-1.64c-.75.41-1.54.63-2.39.63-.74,0-1.3-.25-1.68-.75-.38-.5-.57-1.24-.57-2.25,0-2.03.77-3.06,2.3-3.06h0Z"/>
  <path class="cls-1" d="M112.4,26.03c.43-.49.65-1.11.65-1.86,0-.89-.33-1.6-.99-2.11s-1.59-.76-2.77-.76c-1.42,0-2.67.4-3.75,1.19l.92,1.31c.56-.36,1.05-.61,1.46-.74s.84-.19,1.28-.19c.63,0,1.12.13,1.45.41.33.27.49.66.49,1.17,0,1.29-.94,1.94-2.81,1.94h-1.03v1.53h1.02c1.06,0,1.85.15,2.34.44.5.3.74.75.74,1.38,0,.7-.23,1.23-.67,1.57s-1.13.51-2.03.51c-.52,0-1.05-.07-1.6-.2s-1.08-.32-1.58-.57v1.67c.89.42,1.99.63,3.29.63,1.47,0,2.61-.31,3.4-.92s1.2-1.49,1.2-2.61c0-.77-.23-1.4-.7-1.86-.47-.47-1.17-.76-2.12-.88v-.06c.79-.17,1.4-.5,1.83-1h0Z"/>
  <path class="cls-1" d="M95.01,48.24h-.07l-2.68-9.12h-4.62v12.85h3.08v-5.58c0-.88-.06-2.1-.19-3.68h.08l2.63,9.26h3.3l2.59-9.23h.08c-.07,1.39-.11,2.27-.12,2.63s-.02.68-.02.98v5.63h3.19v-12.85h-4.63l-2.63,9.12h.02Z"/>
  <path class="cls-1" d="M111.01,38.91c-2.04,0-3.59.56-4.66,1.69s-1.6,2.76-1.6,4.9.54,3.81,1.61,4.94c1.07,1.13,2.62,1.7,4.63,1.7s3.6-.56,4.66-1.69c1.06-1.13,1.59-2.77,1.59-4.93s-.52-3.81-1.58-4.93-2.61-1.68-4.65-1.68h0ZM112.95,48.34c-.42.6-1.08.91-1.96.91-1.73,0-2.59-1.24-2.59-3.72s.87-3.76,2.61-3.76c.85,0,1.49.31,1.93.92s.65,1.56.65,2.84-.21,2.21-.63,2.83h0Z"/>
  <path class="cls-1" d="M128.88,44.92c0,.78.04,1.82.13,3.12h-.05l-4.67-8.93h-4.53v12.85h3.08v-5.79c0-.75-.05-1.84-.16-3.26h.08l4.7,9.05h4.55v-12.85h-3.09v5.81h-.02Z"/>
  <path class="cls-1" d="M137.74,39.06l-4.19,12.9h3.81l.65-2.41h4.17l.63,2.41h3.8l-4.24-12.9h-4.63,0ZM138.73,46.7c.53-2.02.88-3.37,1.03-4.05.16-.69.26-1.18.31-1.48.06.32.18.85.37,1.6s.34,1.35.47,1.82l.56,2.11h-2.74Z"/>
  <path class="cls-1" d="M157.63,42.91c0-2.53-1.75-3.8-5.24-3.8h-4.21v12.85h3.47v-4.67h.88l2.72,4.67h3.94l-3.74-5.6c1.46-.81,2.18-1.96,2.18-3.45h0ZM152.3,44.68h-.65v-2.93h.69c1.19,0,1.78.44,1.78,1.33,0,1.07-.6,1.6-1.82,1.6Z"/>
  <path class="cls-1" d="M166.26,41.77c.55,0,1.06.08,1.53.23.48.16.95.34,1.42.56l1.06-2.73c-1.27-.6-2.59-.91-3.98-.91-1.27,0-2.38.27-3.32.81-.94.54-1.66,1.31-2.16,2.32s-.75,2.18-.75,3.51c0,2.13.52,3.75,1.55,4.88s2.52,1.69,4.46,1.69c1.35,0,2.57-.23,3.64-.71v-2.93c-.54.22-1.07.41-1.61.57-.53.16-1.08.23-1.65.23-1.88,0-2.82-1.24-2.82-3.71,0-1.19.23-2.12.7-2.8.46-.68,1.1-1.02,1.93-1.02h0Z"/>
  <path class="cls-2" d="M62.71,9.75c-5.92,0-11.23,2.64-14.82,6.8,3.02.06,5.89.74,8.49,1.93,1.86-1.09,4.02-1.71,6.33-1.71,6.94,0,12.56,5.63,12.56,12.56,0,.2,0,.41-.02.61,0,.16-.02.31-.03.46v.13c-.03.19-.05.38-.08.57h0c-.38,2.71-1.63,5.13-3.44,7,1.82,1.86,3.06,4.29,3.44,7h0c.02.19.05.38.07.57v.13c.02.16.04.31.04.46,0,.2.02.41.02.61,0,6.94-5.63,12.56-12.56,12.56-2.33,0-4.51-.63-6.38-1.75-2.6,1.17-5.46,1.85-8.48,1.91,3.59,4.19,8.91,6.84,14.86,6.84,10.81,0,19.57-8.76,19.57-19.57,0-3.15-.75-6.13-2.07-8.76,1.32-2.64,2.07-5.61,2.07-8.76,0-10.81-8.76-19.57-19.57-19.57h0Z"/>
  <path class="cls-1" d="M30.59,17.43c2.57,0,4.95.77,6.93,2.09,2.4-1.24,5.06-2.06,7.88-2.32-3.59-4.15-8.89-6.78-14.81-6.78-10.82,0-19.59,8.77-19.59,19.59l-.02,8.98h7.04v-8.98c0-6.95,5.62-12.58,12.57-12.58h0Z"/>
  <g>
    <g>
      <path class="cls-1" d="M56.79,39.43h0s-.02,0-.02,0h-17.99s0,.31,0,.31c0,5.05,4.12,9.16,9.17,9.16s9.15-4.1,9.15-9.15v-.32h-.32ZM47.64,48.59h-.01s0-.01.01-.01h0ZM54.25,45.48h0s-1.14-1.14-1.14-1.14l-.45.45,1.14,1.14h0c.06-.06.11-.1.17-.16-.06.06-.11.11-.17.16h0c-1.46,1.38-3.39,2.24-5.53,2.33v-1.81h-.64v1.8c-2.09-.08-3.98-.9-5.42-2.22l1.24-1.24-.45-.45-1.25,1.24h0c-1.37-1.45-2.22-3.38-2.31-5.51h7.21s0,0,0,0h0c.11.61.65,1.09,1.3,1.09.1,0,.2-.01.3-.04l3.94,2.63-3.11-3.23c.08-.13.14-.29.17-.45h7.21c-.08,2.08-.9,3.97-2.21,5.4Z"/>
      <polygon class="cls-1" points="43 44.34 43.01 44.34 43 44.34 43 44.34"/>
      <path class="cls-1" d="M45.94,44.66h0c.06-.09.1-.19.1-.31,0-.1-.02-.19-.06-.26s-.09-.13-.16-.17c-.06-.04-.14-.07-.22-.09-.08-.02-.17-.03-.26-.03h-.69v1.81h.43v-.72h.15l.39.72h.51l-.47-.77c.11-.04.21-.1.27-.18ZM45.58,44.47l-.08.06-.1.03h-.32s0-.42,0-.42h.33l.1.04.07.06.03.1-.03.11h0Z"/>
      <rect class="cls-1" x="46.47" y="43.8" width=".44" height="1.81"/>
      <path class="cls-1" d="M47.85,44.15h.01l.08-.03h.09c.06,0,.11,0,.17.03.06.03.11.06.15.11l.28-.29c-.08-.08-.17-.13-.28-.17-.11-.04-.21-.06-.31-.06-.08,0-.17.01-.26.03-.08.02-.16.06-.22.1-.06.04-.12.1-.16.18s-.06.16-.06.26c0,.08.01.15.04.21l.1.15.15.1c.06.03.11.04.17.06.06.02.11.04.16.05l.11.05.07.06.03.09-.02.09-.06.06-.08.03h-.1c-.07.01-.14,0-.22-.04-.07-.04-.13-.08-.17-.13l-.29.29c.08.08.18.15.3.19s.25.07.38.07c.09,0,.17-.01.26-.04.08-.03.16-.06.22-.11.06-.05.11-.11.15-.19s.06-.17.06-.27c0-.09-.02-.17-.05-.22-.04-.06-.08-.11-.13-.15-.06-.04-.11-.08-.18-.1-.06-.03-.13-.04-.19-.07l-.11-.04-.09-.04-.06-.05-.02-.08.03-.09.06-.06Z"/>
      <polygon class="cls-1" points="50.65 43.8 50.1 43.8 49.46 44.54 49.45 44.54 49.45 43.8 49.02 43.8 49.02 45.61 49.45 45.61 49.45 44.78 49.46 44.78 50.13 45.61 50.7 45.61 49.87 44.63 50.65 43.8"/>
    </g>
    <g>
      <path class="cls-1" d="M52.15,37.89c0-.39-.32-.71-.71-.71h-7.19c-.39,0-.71.32-.71.71s.32.71.71.71h7.19c.39,0,.71-.32.71-.71Z"/>
      <g>
        <path class="cls-1" d="M54.65,31.87s-.01,0-.01-.01c-.03-.6-.22-1.2-.59-1.72-.23-.31-.51-.59-.86-.82h0c-.56-.38-1.19-.56-1.82-.56-.47,0-.91.1-1.34.29,0,0,0,0,0,0-.19-.04-.38-.08-.57-.08-.53,0-1.05.17-1.49.49,0,0,0,0,0,0h0s0,0,0,0c-.43-.32-.96-.5-1.49-.5-.19,0-.39.03-.58.08h0c-.42-.19-.88-.29-1.34-.29-.63,0-1.26.18-1.82.55-.34.22-.63.5-.86.82-.41.56-.6,1.23-.6,1.87,0,.03,0,.2,0,.2.03.81.39,1.55.99,2.16l2.56,2.56h6.31s2.56-2.57,2.56-2.57c.64-.64.98-1.49.98-2.35,0-.04,0-.08-.01-.13ZM45.41,35.43l-2.13-2.12c-.36-.36-.54-.83-.54-1.3,0-.36.11-.71.33-1.01.13-.17.28-.33.47-.45.22-.15.47-.24.72-.28h.01c-.33.51-.49,1.11-.49,1.69,0,.79.29,1.58.87,2.2l1.19,1.27h0s-.43,0-.43,0ZM47.2,34.75l-.08-.08-1.42-1.52c-.31-.33-.47-.77-.47-1.19s.16-.86.49-1.18c.07-.06.13-.12.19-.15.18-.11.37-.17.56-.17.27,0,.54.12.73.32,0,0,0,0,.01.01v3.97h0s-.01,0-.01,0ZM48.71,34.74h-.01s0,0,0,0v-3.97s.01-.01.01-.01c.2-.2.46-.32.73-.32.19,0,.38.06.56.17.05.03.11.09.19.15.33.33.49.75.49,1.18s-.16.86-.47,1.19l-1.42,1.52-.08.08ZM52.63,33.31l-2.13,2.12h-.43,0s1.19-1.28,1.19-1.28c.57-.62.87-1.41.87-2.2,0-.58-.17-1.18-.49-1.69h.01c.25.04.49.13.72.28.19.13.34.28.47.45.22.3.33.65.33,1.01,0,.47-.19.95-.54,1.3Z"/>
        <path class="cls-1" d="M48.19,26.49v-.76h-.49v.76h-.75v.49h0s.75,0,.75,0v.25c-.4.11-.69.47-.69.9,0,.52.42.94.94.94s.94-.42.94-.94c0-.43-.3-.8-.7-.91v-.25s.76,0,.76,0h0v-.49h0s-.76,0-.76,0Z"/>
      </g>
    </g>
  </g>
  <path class="cls-1" d="M63.55,48.84c-.48,0-.94-.03-1.41-.07-.14-.01-.29,0-.43-.02-.29-.03-.58-.08-.87-.12-.31-.04-.63-.07-.94-.13,0,0,0,0-.01,0-1.17-.22-2.31-.55-3.4-.97-2.21,1.91-5.08,3.07-8.22,3.07-6.94,0-12.56-5.63-12.56-12.56,0-6.37,4.75-11.63,10.91-12.44l1.4-1.96,1.35,1.89c2.71.24,5.18,1.33,7.12,3.02,1.09-.42,2.22-.75,3.4-.97,0,0,0,0,.01,0,.31-.06.63-.09.94-.13.29-.04.58-.09.87-.12.14-.01.29,0,.43-.02.47-.03.94-.07,1.41-.07.36,0,.71,0,1.06.03h.02c-3.51-5.3-9.51-8.8-16.34-8.8-10.81,0-19.57,8.76-19.57,19.57s8.76,19.57,19.57,19.57c6.83,0,12.83-3.5,16.34-8.8h-.02c-.35.02-.7.03-1.06.03Z"/>
</svg>